<svg width="15" height="15" viewBox="0 0 15 15" fill="none" xmlns="http://www.w3.org/2000/svg">
<path d="M5.67264 6.56373H0.801282C0.359494 6.56373 0 6.19889 0 5.74974V0.812235C0 0.364408 0.359494 0 0.801282 0H5.67264C6.11443 0 6.47393 0.364408 6.47393 0.812235V5.75018C6.47393 6.19889 6.11443 6.56373 5.67264 6.56373ZM0.801282 0.388995C0.69062 0.389111 0.584531 0.433754 0.506322 0.513114C0.428113 0.592474 0.384182 0.700061 0.384182 0.812235V5.75018C0.384182 5.98419 0.571292 6.17474 0.801282 6.17474H5.67264C5.78346 6.17439 5.88961 6.12949 5.96781 6.0499C6.04601 5.9703 6.08986 5.86251 6.08974 5.75018V0.812235C6.08974 0.700061 6.04581 0.592474 5.9676 0.513114C5.88939 0.433754 5.7833 0.389111 5.67264 0.388995H0.801282ZM14.2 6.56373H9.32736C9.11472 6.56327 8.91096 6.47729 8.76081 6.32468C8.61066 6.17206 8.52639 5.96528 8.52651 5.74974V0.812235C8.52651 0.364408 8.88557 0 9.32736 0H14.2C14.4123 0.000348957 14.6158 0.0860775 14.7658 0.238363C14.9158 0.390649 15 0.597045 15 0.812235V5.75018C15 5.96549 14.9158 6.17203 14.7658 6.32452C14.6159 6.47702 14.4124 6.56304 14.2 6.56373ZM9.32736 0.388995C9.21669 0.389111 9.1106 0.433754 9.0324 0.513114C8.95419 0.592474 8.91026 0.700061 8.91026 0.812235V5.75018C8.91026 5.98419 9.09737 6.17474 9.32736 6.17474H14.2C14.4252 6.17474 14.6158 5.98024 14.6158 5.75018V0.812235C14.6159 0.756769 14.6053 0.701824 14.5844 0.650537C14.5636 0.599249 14.533 0.552624 14.4944 0.513322C14.4558 0.474021 14.4099 0.442813 14.3594 0.421481C14.3089 0.400149 14.2547 0.38911 14.2 0.388995H9.32736ZM5.67264 15H0.801282C0.359494 15 0 14.6356 0 14.1878V9.2485C0 8.80023 0.359494 8.43583 0.801282 8.43583H5.67264C6.11443 8.43583 6.47393 8.80023 6.47393 9.2485V14.1873C6.47393 14.6352 6.11443 15 5.67264 15ZM0.801282 8.82526C0.690656 8.82549 0.584632 8.87017 0.506448 8.94951C0.428264 9.02884 0.384297 9.13636 0.384182 9.2485V14.1873C0.384182 14.4209 0.571292 14.6106 0.801282 14.6106H5.67264C5.7833 14.6104 5.88939 14.5658 5.9676 14.4864C6.04581 14.4071 6.08974 14.2995 6.08974 14.1873V9.2485C6.08974 9.13633 6.04581 9.02874 5.9676 8.94938C5.88939 8.87002 5.7833 8.82538 5.67264 8.82526H0.801282ZM14.2 15H9.32736C8.88557 15 8.52651 14.6356 8.52651 14.1878V9.2485C8.52651 8.80023 8.88557 8.43583 9.32736 8.43583H14.2C14.6409 8.43583 15 8.80023 15 9.2485V14.1873C14.9999 14.4025 14.9156 14.6089 14.7657 14.7612C14.6157 14.9136 14.4123 14.9994 14.2 15ZM9.32736 8.82526C9.21673 8.82549 9.11071 8.87017 9.03252 8.94951C8.95434 9.02884 8.91037 9.13636 8.91026 9.2485V14.1873C8.91026 14.4209 9.09737 14.6106 9.32736 14.6106H14.2C14.4296 14.6106 14.6158 14.4209 14.6158 14.1873V9.2485C14.6159 9.19303 14.6053 9.13809 14.5844 9.0868C14.5636 9.03551 14.533 8.98889 14.4944 8.94959C14.4558 8.91029 14.4099 8.87908 14.3594 8.85775C14.3089 8.83641 14.2547 8.82537 14.2 8.82526H9.32736Z" fill="black" fill-opacity="0.25"/>
</svg>
