<svg width="25" height="25" viewBox="0 0 25 25" fill="none" xmlns="http://www.w3.org/2000/svg">
<path d="M19.7917 3.125H13.5417C12.7129 3.125 11.918 3.45424 11.332 4.04029C10.7459 4.62634 10.4167 5.4212 10.4167 6.25V10.4167H11.4584V6.25C11.4584 5.69747 11.6778 5.16756 12.0685 4.77686C12.4592 4.38616 12.9892 4.16667 13.5417 4.16667H19.7917C20.3442 4.16667 20.8741 4.38616 21.2648 4.77686C21.6555 5.16756 21.875 5.69747 21.875 6.25V19.7917C21.875 20.3442 21.6555 20.8741 21.2648 21.2648C20.8741 21.6555 20.3442 21.875 19.7917 21.875H13.5417C12.9892 21.875 12.4592 21.6555 12.0685 21.2648C11.6778 20.8741 11.4584 20.3442 11.4584 19.7917V15.625H10.4167V19.7917C10.4167 20.6205 10.7459 21.4153 11.332 22.0014C11.918 22.5874 12.7129 22.9167 13.5417 22.9167H19.7917C20.6205 22.9167 21.4153 22.5874 22.0014 22.0014C22.5874 21.4153 22.9167 20.6205 22.9167 19.7917V6.25C22.9167 5.4212 22.5874 4.62634 22.0014 4.04029C21.4153 3.45424 20.6205 3.125 19.7917 3.125ZM16.6667 12.5H4.94794L8.33335 9.11458L7.64585 8.33333L2.95835 13.0208L7.64585 17.7083L8.33335 16.9271L4.94794 13.5417H16.6667V12.5Z" fill="white"/>
</svg>
